HIERARCHY
ROOT Hips
{
	OFFSET	0	0	0
	CHANNELS 6  Xposition Yposition Zposition Xrotation Yrotation Zrotation
	JOINT Spine
	{
		OFFSET	0	7.36801	1.47921
		CHANNELS 3  Xrotation Yrotation Zrotation
		JOINT Spine1
		{
			OFFSET	0	12.6146	-2.2526
			CHANNELS 3  Xrotation Yrotation Zrotation
			JOINT Spine2
			{
				OFFSET	0	9.56229	1.02493
				CHANNELS 3  Xrotation Yrotation Zrotation
				JOINT Spine3
				{
					OFFSET	0	11.4432	3.40143
					CHANNELS 3  Xrotation Yrotation Zrotation
					JOINT Spine4
					{
						OFFSET	0	16.9396	-1.7345
						CHANNELS 3  Xrotation Yrotation Zrotation
						JOINT Neck
						{
							OFFSET	0	8.08684	-5.66529
							CHANNELS 3  Xrotation Yrotation Zrotation
							JOINT Head
							{
								OFFSET	0	9.70872	-2.90586
								CHANNELS 3  Xrotation Yrotation Zrotation
								End Site
								{
									OFFSET	0	20.2509	-0.979882
								}
							}
						}
					}
					JOINT LeftShoulder
					{
						OFFSET	-4.86562	20.5888	-9.70871
						CHANNELS 3  Xrotation Yrotation Zrotation
						JOINT LeftArm
						{
							OFFSET	-10.6038	-2.90585	3.72808
							CHANNELS 3  Xrotation Yrotation Zrotation
							JOINT LeftForeArm
							{
								OFFSET	-30.8337	-1.4073	2.20088
								CHANNELS 3  Xrotation Yrotation Zrotation
								JOINT LeftHand
								{
									OFFSET	-25.1332	-1.73684	1.79398
									CHANNELS 3  Xrotation Yrotation Zrotation
									End Site
									{
										OFFSET	-9.17235	-0.633862	0.65467
									}
								}
							}
						}
					}
					JOINT RightShoulder
					{
						OFFSET	4.86562	20.5888	-9.70871
						CHANNELS 3  Xrotation Yrotation Zrotation
						JOINT RightArm
						{
							OFFSET	10.6038	-2.90585	3.72808
							CHANNELS 3  Xrotation Yrotation Zrotation
							JOINT RightForeArm
							{
								OFFSET	30.8337	-1.4073	2.20088
								CHANNELS 3  Xrotation Yrotation Zrotation
								JOINT RightHand
								{
									OFFSET	25.1332	-1.73684	1.79398
									CHANNELS 3  Xrotation Yrotation Zrotation
									End Site
									{
										OFFSET	9.17235	-0.633862	0.65467
									}
								}
							}
						}
					}
				}
			}
		}
	}
	JOINT LeftUpLeg
	{
		OFFSET	-10.0134	-3.684	-0.739604
		CHANNELS 3  Xrotation Yrotation Zrotation
		JOINT LeftLeg
		{
			OFFSET	-2.30148	-45.0967	-0.70496
			CHANNELS 3  Xrotation Yrotation Zrotation
			JOINT LeftFoot
			{
				OFFSET	-2.24997	-41.4741	3.56677
				CHANNELS 3  Xrotation Yrotation Zrotation
				JOINT LeftToeBase
				{
					OFFSET	0	-5.07523	-13.4798
					CHANNELS 3  Xrotation Yrotation Zrotation
					End Site
					{
						OFFSET	0	-2.03009	-8.12037
					}
				}
			}
		}
	}
	JOINT RightUpLeg
	{
		OFFSET	10.0134	-3.684	-0.739604
		CHANNELS 3  Xrotation Yrotation Zrotation
		JOINT RightLeg
		{
			OFFSET	2.30148	-45.0967	-0.70496
			CHANNELS 3  Xrotation Yrotation Zrotation
			JOINT RightFoot
			{
				OFFSET	2.24997	-41.4741	3.56677
				CHANNELS 3  Xrotation Yrotation Zrotation
				JOINT RightToeBase
				{
					OFFSET	0	-5.07523	-13.4798
					CHANNELS 3  Xrotation Yrotation Zrotation
					End Site
					{
						OFFSET	0	-2.03009	-8.12037
					}
				}
			}
		}
	}
}
MOTION
Frames: 12
Frame Time: 0.020408
 0 -12.0709 2.70641 -0 0 -0 -0 0 -0 -0 0 -0 -0 0 -0 -0 0 -0 -0 0 -0 -0 0 -0 -0 0 -0 -0 0 -0 -0 0 -0 -0 0 -0 -0 0 -0 -0 0 -0 -0 0 -0 -0 0 -0 -0 0 -0 -0 0 -0 -0 0 -0 -0 0 -0 -0 0 -0 -0 0 -0 -0 0 -0 -0 0 -0 -0 0 -0
 -91.8747 95.8672 83.7792 46.2185 -41.8321 27.9394 0.000175313 -0.00528862 1.89861 161.586 -179.989 -176.836 160.149 -179.968 -176.836 163.409 -179.995 -178.101 3.92772 0.0433519 0.631382 27.5165 -11.2831 -9.42637 8.63562 4.31456 -4.31117 1.52946 -27.646 3.32345 0.258075 -36.8237 53.7256 33.4098 -15.3311 7.80902 -0 3.84811 4.70236 1.4078 17.0322 -3.00914 127.165 104.658 174.446 8.46718 8.29271 0.591658 -0 15.3043 15.1914 150.23 -160.599 -166.174 171.691 170.017 179.75 8.88594 0.0357649 8.48703 1.84103 0 0 148.963 165.176 -177.415 159.674 -161.956 -179.831 15.5136 -0.0425821 8.99757 171.759 180 -180
 -91.8173 95.9 83.9171 46.4347 -41.994 28.4685 0.000155286 -0.00468686 1.89764 161.582 -179.991 -176.837 160.141 -179.972 -176.837 163.395 -179.995 -178.102 3.95522 0.0436328 0.63104 27.6362 -11.2869 -9.24035 8.65749 4.04262 -4.24813 1.54341 -27.4242 3.35383 0.496019 -36.6498 53.7911 33.2561 -15.3264 7.84379 -0 3.6399 4.46538 1.40907 16.8825 -3.0104 127.156 104.701 174.561 8.28135 8.54229 0.530116 -0 15.5211 14.9448 149.835 -160.503 -166.527 171.872 169.952 179.8 8.95501 0.0368406 8.50351 1.8511 0 0 148.755 165.174 -177.615 160.121 -161.962 -179.844 15.3557 -0.0525811 8.99033 171.755 180 -180
 -91.7598 95.9249 84.0472 46.61 -42.1418 28.9037 7.27615e-05 -0.00218995 1.90296 161.584 -179.996 -176.828 160.142 -179.987 -176.828 163.397 -179.998 -178.097 3.95503 0.0437531 0.63281 27.6121 -11.6544 -9.28135 8.65249 3.72443 -4.28459 1.53606 -27.3002 3.33783 0.599473 -36.4157 53.8962 33.0505 -15.1993 7.67834 -0 3.45061 4.2511 1.40845 16.6669 -3.00696 127.51 104.584 174.422 8.10102 8.84481 0.493251 -0 15.726 14.6789 149.477 -160.382 -166.818 172.072 169.974 179.753 9.01629 0.0193493 8.52455 1.86008 0 0 148.717 165.19 -177.829 160.309 -161.994 -179.839 15.2229 -0.0455438 8.9836 171.753 180 -180
 -91.6991 95.9426 84.0832 46.8102 -42.3067 29.3102 180 179.999 -178.088 161.594 179.999 -176.813 160.154 179.996 -176.813 163.41 179.999 -178.088 3.94252 0.0438227 0.635834 27.5306 -12.1244 -9.38335 8.63446 3.37771 -4.34616 1.52106 -27.3243 3.30521 0.661121 -36.2087 54.0927 32.8412 -15.0702 7.50243 -0 3.2527 4.0619 1.41849 16.3102 -3.0248 127.868 104.528 174.23 7.91835 9.09965 0.45582 -0 15.9133 14.4228 149.185 -160.305 -167.023 172.266 169.98 179.765 9.04112 0.0190126 8.62019 1.8681 0 0 148.696 165.187 -177.982 160.429 -162.042 -179.816 15.128 -0.0241542 8.97366 171.75 180 -180
 -91.6584 95.9618 84.0683 47.0308 -42.5176 29.7833 180 179.998 -178.083 161.587 179.997 -176.804 160.148 179.99 -176.804 163.409 179.998 -178.083 3.93327 0.0438453 0.637663 27.4503 -12.7368 -9.56948 8.6238 3.02983 -4.44949 1.51444 -27.3972 3.29082 0.677673 -35.9974 54.2584 32.6342 -14.9534 7.30251 -0 3.03228 3.86653 1.41898 16.0317 -3.02292 128.189 104.478 174.15 7.72592 9.35655 0.435916 -0 16.0956 14.1527 148.9 -160.242 -167.145 172.498 169.98 179.765 9.03533 0.0160444 8.70298 1.87907 0 0 148.649 165.171 -178.085 160.607 -162.076 -179.813 14.9949 -0.00942536 8.96484 171.748 180 -180
 -91.6417 95.971 84.0301 47.2397 -42.7048 30.2076 180 179.996 -178.082 161.59 179.993 -176.803 160.151 179.978 -176.803 163.41 179.996 -178.082 3.93596 0.0438878 0.637842 27.4247 -13.0992 -9.65523 8.62243 2.79165 -4.50279 1.51663 -27.4805 3.29559 0.726728 -35.8072 54.4563 32.4316 -14.8271 7.15289 -0 2.81409 3.68099 1.42097 15.742 -3.02405 128.58 104.427 173.832 7.54501 9.50851 0.453812 -0 16.231 13.8862 148.65 -160.191 -167.239 172.677 169.99 179.738 9.05877 0.0121182 8.82284 1.88885 0 0 148.586 165.15 -178.133 160.759 -162.088 -179.828 14.9074 -0.00982614 8.9608 171.746 180 -180
 -91.6398 95.9834 84.0146 47.5179 -42.9303 30.7224 180 179.998 -178.079 161.588 179.995 -176.798 160.145 179.986 -176.798 163.398 179.998 -178.079 3.96102 0.0442383 0.638856 27.4789 -13.3087 -9.7026 8.6433 2.68815 -4.53928 1.49966 -27.6451 3.25864 0.744876 -35.5731 54.6535 32.2585 -14.8404 7.06871 -0 2.53656 3.51638 1.40763 15.5649 -2.99371 129.129 104.24 173.471 7.36645 9.62977 0.479793 -0 16.3483 13.6087 148.453 -160.181 -167.308 172.832 169.979 179.707 9.07159 0.0242413 9.02888 1.89766 0 0 148.568 165.132 -178.18 160.895 -162.106 -179.823 14.7768 -0.00348362 8.95691 171.745 180 -180
 -91.6526 95.9988 84.0114 47.7748 -43.0677 31.1969 180 179.998 -178.083 161.587 179.997 -176.805 160.142 179.991 -176.805 163.391 179.998 -178.083 3.97345 0.044281 0.637467 27.508 -13.4673 -9.71283 8.65309 2.55828 -4.55557 1.50196 -27.8338 3.26358 0.803945 -35.3507 54.845 32.091 -14.822 7.01851 -0 2.23553 3.35541 1.40898 15.3434 -2.99414 129.57 104.2 173.136 7.18907 9.66028 0.502734 -0 16.441 13.3088 148.266 -160.146 -167.426 172.966 169.97 179.698 9.09515 0.0314464 9.27582 1.90678 0 0 148.53 165.109 -178.264 161.024 -162.109 -179.844 14.6251 -0.0059813 8.95495 171.743 180 -180
 -91.6306 96.0132 84.0022 48.0077 -43.1994 31.5683 0.000103285 -0.00307228 1.92546 161.581 -179.994 -176.791 160.14 -179.982 -176.791 163.395 -179.997 -178.075 3.95454 0.0442648 0.640291 27.4449 -13.6869 -9.75813 8.63672 2.37513 -4.58058 1.511 -27.9084 3.2832 0.731495 -35.0468 54.9402 31.9407 -14.8983 6.99999 -0 1.89153 3.17415 1.40738 15.2675 -2.98989 129.918 104.052 172.85 7.01541 9.70079 0.530969 -0 16.5257 12.9454 148.106 -160.138 -167.535 173.098 169.95 179.697 9.11548 0.0475392 9.58164 1.91564 0 0 148.482 165.118 -178.323 161.127 -162.122 -179.836 14.5341 0.00271181 8.95226 171.742 180 -180
 -91.5543 96.0234 84.0024 48.1855 -43.3585 31.8646 0.000207947 -0.00614439 1.93835 161.586 -179.988 -176.769 160.149 -179.963 -176.769 163.41 -179.994 -178.062 3.92542 0.0442336 0.6446 27.3336 -13.9746 -9.8449 8.60865 2.16586 -4.62131 1.53481 -27.8485 3.335 0.55715 -34.6922 54.9787 31.7961 -14.9861 7.00408 -0 1.5421 3.00949 1.40161 15.1832 -2.97667 130.426 103.81 172.217 6.86133 9.73983 0.592461 -0 16.6096 12.5905 147.988 -160.173 -167.633 173.224 169.945 179.695 9.12911 0.0397592 9.85099 1.92472 0 0 148.45 165.081 -178.379 161.225 -162.128 -179.815 14.5038 -0.00693277 8.95323 171.741 180 -180
 -91.4959 96.0381 84.0088 48.4268 -43.5412 32.2356 0.000205467 -0.00604391 1.94706 161.576 -179.988 -176.755 160.139 -179.964 -176.755 163.403 -179.994 -178.053 3.92384 0.0444147 0.6475 27.3443 -14.1703 -9.80527 8.60823 1.89779 -4.6181 1.55156 -27.6949 3.3715 0.349089 -34.2954 55.0252 31.6682 -15.1429 7.04978 -0 1.17424 2.84062 1.4062 15.0584 -2.98501 130.927 103.711 171.788 6.71491 9.70401 0.636008 -0 16.6923 12.2635 147.834 -160.215 -167.691 173.357 169.973 179.738 9.1025 0.0244649 10.0865 1.9334 0 0 148.442 165.03 -178.5 161.314 -162.131 -179.788 14.4511 -0.0180545 8.95551 171.74 180 -180
